<svg xmlns="http://www.w3.org/2000/svg" version="1.1" xmlns:xlink="http://www.w3.org/1999/xlink" width="512" height="512" x="0" y="0" viewBox="0 0 96 96" style="enable-background:new 0 0 512 512" xml:space="preserve" class=""><g><rect width="69.72" height="94" x="18.14" y="1" fill="#737ec5" rx="3.36" opacity="1" data-original="#737ec5"></rect><rect width="69.72" height="94" x="13.65" y="1" fill="#b4c9e8" rx="3.36" opacity="1" data-original="#b4c9e8"></rect><path fill="#ffffff" d="M78.23 4.36v27.81h5.14V4.36A3.35 3.35 0 0 0 80 1h-5.12a3.35 3.35 0 0 1 3.35 3.36z" opacity="1" data-original="#ffffff"></path><rect width="64.58" height="94" x="13.65" y="1" fill="#737ec5" rx="3.36" opacity="1" data-original="#737ec5"></rect><path fill="#91b0e8" d="M78.23 76.48v15.16A3.35 3.35 0 0 1 74.87 95H59.73a4.3 4.3 0 0 0 1.27-.88c17.68-17.69 16.77-16.61 17.23-17.64z" opacity="1" data-original="#91b0e8"></path><path fill="#737ec5" d="M78.23 82.36v9.28A3.35 3.35 0 0 1 74.87 95h-9.26z" opacity="1" data-original="#737ec5"></path><path fill="#302d3d" d="M84.5 96h-63a4.36 4.36 0 0 1-4.36-4.36V4.36A4.36 4.36 0 0 1 21.5 0h63a4.37 4.37 0 0 1 4.36 4.36v87.28A4.37 4.37 0 0 1 84.5 96zm-63-94a2.36 2.36 0 0 0-2.36 2.36v87.28A2.36 2.36 0 0 0 21.5 94h63a2.36 2.36 0 0 0 2.36-2.36V4.36A2.36 2.36 0 0 0 84.5 2z" opacity="1" data-original="#302d3d" class=""></path><path fill="#302d3d" d="M80 96H17a4.37 4.37 0 0 1-4.36-4.36V4.36A4.37 4.37 0 0 1 17 0h63a4.37 4.37 0 0 1 4.36 4.36v87.28A4.37 4.37 0 0 1 80 96zM17 2a2.36 2.36 0 0 0-2.36 2.36v87.28A2.36 2.36 0 0 0 17 94h63a2.36 2.36 0 0 0 2.36-2.36V4.36A2.36 2.36 0 0 0 80 2z" opacity="1" data-original="#302d3d" class=""></path><path fill="#e6ecf2" d="M78.25 4.62c0 75.84.18 70.66-.39 71.86-.44 1 .48-.08-16.88 17.27A4.27 4.27 0 0 1 58 95H11.77a3.63 3.63 0 0 1-3.63-3.62V4.62A3.63 3.63 0 0 1 11.77 1h62.86a3.62 3.62 0 0 1 3.62 3.62z" opacity="1" data-original="#e6ecf2" class=""></path><path fill="#ffffff" d="M43.38 9.75V55.8a2.75 2.75 0 0 0 2.74 2.75h10a2.75 2.75 0 0 0 1.94-.8l13.4-13.39a2.79 2.79 0 0 0 .8-2V9.75A2.75 2.75 0 0 0 69.5 7H46.12a2.75 2.75 0 0 0-2.74 2.75z" opacity="1" data-original="#ffffff"></path><path fill="#d2206e" d="M39.42 1v94H11.77a3.63 3.63 0 0 1-3.63-3.62V4.62A3.63 3.63 0 0 1 11.77 1z" opacity="1" data-original="#d2206e"></path><path fill="#a0116e" d="M39.42 65.94V95H11.77a3.63 3.63 0 0 1-3.63-3.62V62.32a3.63 3.63 0 0 0 3.63 3.62z" opacity="1" data-original="#a0116e"></path><path fill="#ff526e" d="M39.42 1v94h-17.5a3.62 3.62 0 0 1-3.62-3.62V4.62A3.62 3.62 0 0 1 21.92 1z" opacity="1" data-original="#ff526e" class=""></path><rect width="9.12" height="33.63" x="24.3" y="55.38" fill="#ff9d87" rx="1.75" opacity="1" data-original="#ff9d87"></rect><path fill="#bec9d9" d="M77.86 76.48c-.44 1 .48-.08-16.88 17.27a3.83 3.83 0 0 1-1.25.86V80.1a3.62 3.62 0 0 1 3.62-3.62z" opacity="1" data-original="#bec9d9"></path><path fill="#8ad7ff" d="M33.94 7.91v22.92a2.32 2.32 0 0 1-2.31 2.32H15.18a2.32 2.32 0 0 1-2.32-2.32V7.91a2.31 2.31 0 0 1 2.32-2.31h16.45a2.31 2.31 0 0 1 2.31 2.31z" opacity="1" data-original="#8ad7ff"></path><circle cx="23.4" cy="16.74" r="5.48" fill="#3f3c6a" opacity="1" data-original="#3f3c6a" class=""></circle><path fill="#3f3c6a" d="M33.94 30.83a2.33 2.33 0 0 1-2.32 2.32H15.18a2.32 2.32 0 0 1-2.32-2.32 5.39 5.39 0 0 1 .52-2.33 11.14 11.14 0 0 1 20 0 5.38 5.38 0 0 1 .56 2.33z" opacity="1" data-original="#3f3c6a" class=""></path><path fill="#302d3d" d="M52 19.06a6.45 6.45 0 1 1 5.22-10.28A1 1 0 1 1 55.61 10a4.44 4.44 0 1 0 .12 5.13 1 1 0 1 1 1.65 1.12A6.42 6.42 0 0 1 52 19.06zM60.75 18.49l-2.85-6a1 1 0 0 1 .48-1.33 1 1 0 0 1 1.33.47l1.94 4.07 1.94-4.07a1 1 0 0 1 1.8.86l-2.84 6a1 1 0 0 1-1.8 0z" opacity="1" data-original="#302d3d" class=""></path><rect width="21.08" height="6.47" x="12.86" y="59.47" fill="#8ad7ff" rx="1.77" opacity="1" data-original="#8ad7ff"></rect><rect width="21.08" height="6.47" x="12.86" y="71.16" fill="#53cd88" rx="1.77" opacity="1" data-original="#53cd88"></rect><rect width="7.42" height="6.47" x="12.86" y="82.84" fill="#ffca6e" rx="1.77" opacity="1" data-original="#ffca6e"></rect><rect width="7.42" height="6.47" x="26.52" y="82.84" fill="#ffca6e" rx="1.77" opacity="1" data-original="#ffca6e"></rect><g fill="#302d3d"><path d="M58 96H11.77a4.63 4.63 0 0 1-4.63-4.62V4.62A4.63 4.63 0 0 1 11.77 0h62.86a4.62 4.62 0 0 1 4.62 4.62v70.09a5.12 5.12 0 0 1-.48 2.2c-.51 1.15.31.16-17.08 17.55A5.27 5.27 0 0 1 58 96zM11.77 2a2.63 2.63 0 0 0-2.63 2.62v86.76A2.63 2.63 0 0 0 11.77 94H58a3.29 3.29 0 0 0 2.32-1C77.72 75.6 76.62 76.82 77 76.08c.44-1 .3 3.48.3-71.46A2.62 2.62 0 0 0 74.63 2z" fill="#302d3d" opacity="1" data-original="#302d3d" class=""></path><path d="M39.42 96H11.77a4.63 4.63 0 0 1-4.63-4.62V4.62A4.63 4.63 0 0 1 11.77 0h27.65a1 1 0 0 1 1 1v94a1 1 0 0 1-1 1zM11.77 2a2.63 2.63 0 0 0-2.63 2.62v86.76A2.63 2.63 0 0 0 11.77 94h26.65V2zM59.73 95.61a1 1 0 0 1-1-1V80.1a4.63 4.63 0 0 1 4.62-4.62h14.51a1 1 0 0 1 .92 1.41 5.44 5.44 0 0 1-1.07 1.55C61.8 94.34 60.86 95.61 59.73 95.61zm3.62-18.13a2.63 2.63 0 0 0-2.62 2.62v12.49l15.11-15.11z" fill="#302d3d" opacity="1" data-original="#302d3d" class=""></path><path d="M31.63 34.15H15.18a3.32 3.32 0 0 1-3.32-3.32V7.91a3.32 3.32 0 0 1 3.32-3.31h16.45a3.31 3.31 0 0 1 3.31 3.31v22.92a3.32 3.32 0 0 1-3.31 3.32zM15.18 6.6a1.32 1.32 0 0 0-1.32 1.31v22.92a1.33 1.33 0 0 0 1.32 1.32h16.45a1.32 1.32 0 0 0 1.31-1.32V7.91a1.31 1.31 0 0 0-1.31-1.31z" fill="#302d3d" opacity="1" data-original="#302d3d" class=""></path><path d="M23.4 23.23a6.49 6.49 0 1 1 6.49-6.49 6.49 6.49 0 0 1-6.49 6.49zm0-11a4.49 4.49 0 1 0 4.49 4.48 4.49 4.49 0 0 0-4.49-4.45z" fill="#302d3d" opacity="1" data-original="#302d3d" class=""></path><path d="M31.62 34.15H15.18a3.32 3.32 0 0 1-3.32-3.32c0-4.2 5-9.6 11.54-9.6s11.54 5.41 11.54 9.6a3.32 3.32 0 0 1-3.32 3.32zM23.4 23.23c-5.35 0-9.54 4.39-9.54 7.6a1.33 1.33 0 0 0 1.32 1.32h16.44a1.32 1.32 0 0 0 1.32-1.32c0-3.23-4.21-7.6-9.54-7.6zM32.17 66.94H14.63a2.78 2.78 0 0 1-2.77-2.77v-2.93a2.78 2.78 0 0 1 2.77-2.77h17.54a2.77 2.77 0 0 1 2.77 2.77v2.93a2.77 2.77 0 0 1-2.77 2.77zm-17.54-6.47a.78.78 0 0 0-.77.77v2.93a.77.77 0 0 0 .77.77h17.54a.77.77 0 0 0 .77-.77v-2.93a.78.78 0 0 0-.77-.77zM32.17 78.63H14.63a2.78 2.78 0 0 1-2.77-2.77v-2.93a2.78 2.78 0 0 1 2.77-2.77h17.54a2.77 2.77 0 0 1 2.77 2.77v2.93a2.78 2.78 0 0 1-2.77 2.77zm-17.54-6.47a.77.77 0 0 0-.77.77v2.93a.78.78 0 0 0 .77.77h17.54a.78.78 0 0 0 .77-.77v-2.93a.77.77 0 0 0-.77-.77zM18.51 90.31h-3.88a2.78 2.78 0 0 1-2.77-2.77v-2.93a2.78 2.78 0 0 1 2.77-2.77h3.88a2.77 2.77 0 0 1 2.77 2.77v2.93a2.77 2.77 0 0 1-2.77 2.77zm-3.88-6.47a.78.78 0 0 0-.77.77v2.93a.77.77 0 0 0 .77.77h3.88a.77.77 0 0 0 .77-.77v-2.93a.78.78 0 0 0-.77-.77zM32.17 90.31h-3.88a2.78 2.78 0 0 1-2.77-2.77v-2.93a2.78 2.78 0 0 1 2.77-2.77h3.88a2.77 2.77 0 0 1 2.77 2.77v2.93a2.77 2.77 0 0 1-2.77 2.77zm-3.88-6.47a.78.78 0 0 0-.77.77v2.93a.77.77 0 0 0 .77.77h3.88a.77.77 0 0 0 .77-.77v-2.93a.78.78 0 0 0-.77-.77zM33.94 41.15H12.86a1 1 0 0 1 0-2h21.08a1 1 0 0 1 0 2zM33.94 46.31H12.86a1 1 0 0 1 0-2h21.08a1 1 0 0 1 0 2zM28.28 51.48H12.86a1 1 0 0 1 0-2h15.42a1 1 0 0 1 0 2zM70.43 27H46.6a1 1 0 0 1 0-2h23.83a1 1 0 0 1 0 2zM70.43 31.84H46.6a1 1 0 0 1 0-2h23.83a1 1 0 0 1 0 2zM70.43 36.7H46.6a1 1 0 0 1 0-2h23.83a1 1 0 0 1 0 2zM55.06 41.55H46.6a1 1 0 0 1 0-2h8.46a1 1 0 0 1 0 2zM63 41.55h-2.54a1 1 0 1 1 0-2H63a1 1 0 0 1 0 2zM48.51 51.89H46.6a1 1 0 0 1 0-2h1.91a1 1 0 1 1 0 2zM48.51 58.54H46.6a1 1 0 0 1 0-2h1.91a1 1 0 0 1 0 2zM48.51 65.19H46.6a1 1 0 1 1 0-2h1.91a1 1 0 0 1 0 2zM48.51 71.84H46.6a1 1 0 1 1 0-2h1.91a1 1 0 0 1 0 2zM70.43 51.89H54.05a1 1 0 0 1 0-2h16.38a1 1 0 0 1 0 2zM70.43 58.54H54.05a1 1 0 0 1 0-2h16.38a1 1 0 0 1 0 2zM70.43 65.19H54.05a1 1 0 0 1 0-2h16.38a1 1 0 0 1 0 2zM70.43 71.84H54.05a1 1 0 0 1 0-2h16.38a1 1 0 0 1 0 2zM53 81.8h-6.4a1 1 0 0 1 0-2H53a1 1 0 1 1 0 2zM53 86.55h-6.4a1 1 0 0 1 0-2H53a1 1 0 1 1 0 2zM53 91.3h-6.4a1 1 0 0 1 0-2H53a1 1 0 1 1 0 2z" fill="#302d3d" opacity="1" data-original="#302d3d" class=""></path></g></g></svg>