<svg xmlns="http://www.w3.org/2000/svg" version="1.1" xmlns:xlink="http://www.w3.org/1999/xlink" width="512" height="512" x="0" y="0" viewBox="0 0 512 512" style="enable-background:new 0 0 512 512" xml:space="preserve" class=""><g><path fill="#f4fbff" d="M395.058 7.5H140.619c-16.351 0-29.606 13.255-29.606 29.606v437.789c0 16.351 13.255 29.606 29.606 29.606h331.762c16.351 0 29.606-13.255 29.606-29.606V114.429a29.604 29.604 0 0 0-8.672-20.935l-77.323-77.323A29.603 29.603 0 0 0 395.058 7.5z" opacity="1" data-original="#f4fbff" class=""></path><path fill="#e4f6ff" d="m493.316 93.494-54.421-54.421v435.822c0 16.351-13.255 29.606-29.606 29.606h63.092c16.351 0 29.606-13.255 29.606-29.606V114.429a29.607 29.607 0 0 0-8.671-20.935z" opacity="1" data-original="#e4f6ff"></path><path fill="#e28086" d="m493.316 93.494-77.323-77.323a29.6 29.6 0 0 0-8.672-6.012v73.652c0 10.137 8.218 18.355 18.355 18.355h73.651a29.597 29.597 0 0 0-6.011-8.672z" opacity="1" data-original="#e28086" class=""></path><path fill="#4a80aa" d="m218.959 376.458 22.769-22.769 47.693 47.693-22.77 22.77z" opacity="1" data-original="#4a80aa" class=""></path><path fill="#cc9675" d="m362.134 459.681-68.185-68.185c-3.907-3.907-10.242-3.907-14.149 0l-22.981 22.981c-3.907 3.907-3.907 10.242 0 14.149l68.185 68.185c10.253 10.253 26.877 10.253 37.13 0 10.254-10.253 10.254-26.877 0-37.13z" opacity="1" data-original="#cc9675"></path><circle cx="147.949" cy="282.625" r="138.005" fill="#bed8fb" opacity="1" data-original="#bed8fb" class=""></circle><circle cx="147.949" cy="282.625" r="108.098" fill="#f4fbff" opacity="1" data-original="#f4fbff" class=""></circle><path fill="#ffcbbe" d="M171.088 333.057a5.453 5.453 0 0 1-4.776-5.385l-.105-24.931-38.093.161.105 24.931a5.453 5.453 0 0 1-4.73 5.426s-7.034 24.04 23.9 23.91c30.935-.132 23.699-24.112 23.699-24.112z" opacity="1" data-original="#ffcbbe"></path><path fill="#365e7d" d="M204.404 340.347c-8.728-3.842-25.205-6.273-33.316-7.291l-.049.061c-12.168 15.221-35.292 15.289-47.55.14-8.102 1.086-24.559 3.656-33.253 7.571-9.038 4.072-14.24 12.968-14.429 22.303 40.774 36.602 102.669 36.788 143.657.558.162-10.334-5.578-19.168-15.06-23.342z" opacity="1" data-original="#365e7d" class=""></path><path fill="#4a80aa" d="M176.889 224.928c0-6.01-4.872-10.883-10.883-10.883h-36.203c-14.551 0-26.347 11.796-26.347 26.347v19.609l8.999 6.899h70.36l8.999-15.154v-12.26c0-6.01-4.872-10.883-10.883-10.883h-.367a3.674 3.674 0 0 1-3.675-3.675z" opacity="1" data-original="#4a80aa" class=""></path><path fill="#ffddce" d="m191.814 251.747-17.265-1.619a34.033 34.033 0 0 0-20.952 4.862 34.029 34.029 0 0 1-17.775 5.011h-32.366v15.634a5.73 5.73 0 0 0 5.729 5.729c.984 0 1.81.758 1.871 1.74 1.189 19.173 17.106 34.357 36.578 34.357 19.49 0 35.418-15.211 36.536-34.408a1.804 1.804 0 0 1 1.808-1.688h.094c3.218 0 5.821-2.609 5.799-5.82-.057-8.626-.057-23.798-.057-23.798z" opacity="1" data-original="#ffddce"></path><path fill="#ffe07d" d="M315.371 102.166H166.585a8.63 8.63 0 0 1-8.63-8.63V64.792a8.63 8.63 0 0 1 8.63-8.63h148.787a8.63 8.63 0 0 1 8.63 8.63v28.743a8.63 8.63 0 0 1-8.631 8.631z" opacity="1" data-original="#ffe07d"></path><path d="M453.324 194.709H324.002a7.5 7.5 0 0 0 0 14.998h129.323a7.5 7.5 0 1 0-.001-14.998zM453.324 239.922H324.002a7.5 7.5 0 0 0 0 14.998h129.323a7.5 7.5 0 1 0-.001-14.998zM460.824 292.634a7.5 7.5 0 0 0-7.499-7.499H324.002a7.5 7.5 0 0 0 0 14.998h129.323a7.498 7.498 0 0 0 7.499-7.499zM324.002 330.348a7.5 7.5 0 0 0 0 14.998h64.661a7.5 7.5 0 0 0 0-14.998z" fill="#000000" opacity="1" data-original="#000000" class=""></path><path d="M498.619 88.191 421.298 10.87A37.107 37.107 0 0 0 395.058 0H140.619c-20.46 0-37.105 16.646-37.105 37.106v76.781a7.5 7.5 0 0 0 14.998 0V37.106c0-12.19 9.917-22.107 22.107-22.107h254.439c1.618 0 3.209.173 4.764.516v68.296c0 14.256 11.598 25.854 25.854 25.854h68.288a22.11 22.11 0 0 1 .523 4.764v360.466c0 12.189-9.917 22.107-22.107 22.107H371.632c8.769-13.111 7.373-31.055-4.195-42.623l-68.185-68.185c-4.966-4.966-12.195-6.3-18.396-4.038l-14.68-14.68c41.416-57.512 35.309-137.086-15.341-187.737-56.213-56.212-148.443-57.332-205.774 0-56.732 56.732-56.732 149.042 0 205.774 50.606 50.607 130.256 56.622 187.732 15.336l14.685 14.685c-2.262 6.201-.928 13.43 4.039 18.396l63.072 63.072h-173.97c-12.189 0-22.107-9.917-22.107-22.107V450.86a7.5 7.5 0 0 0-14.998 0v24.035c0 20.46 16.646 37.105 37.105 37.105h331.762c20.46 0 37.106-16.646 37.106-37.105V114.429a37.17 37.17 0 0 0-10.868-26.238zM55.668 374.907c-50.884-50.884-50.884-133.678 0-184.563 51.532-51.532 134.24-50.322 184.563 0 46.854 46.855 51.219 121.3 10.152 173.166a132.427 132.427 0 0 1-21.549 21.549c-51.535 40.803-126.163 36.851-173.166-10.152zm188.936 16.484a147.58 147.58 0 0 0 12.137-12.139l12.35 12.35-12.167 12.167-12.349-12.35c.01-.01.019-.02.029-.028zm85.703 100.117-68.184-68.184a2.507 2.507 0 0 1 0-3.544l.099-.099.005-.005 22.877-22.877a2.509 2.509 0 0 1 3.544 0l68.184 68.185c7.312 7.313 7.312 19.211 0 26.524-7.331 7.33-19.194 7.33-26.525 0zm84.514-407.697V25.604l69.062 69.062h-58.206c-5.987 0-10.856-4.87-10.856-10.855z" fill="#000000" opacity="1" data-original="#000000" class=""></path><path d="M315.372 48.663H166.585c-8.894 0-16.13 7.236-16.13 16.13v28.743c0 8.894 7.236 16.13 16.13 16.13h148.787c8.894 0 16.13-7.236 16.13-16.13V64.793c-.001-8.894-7.237-16.13-16.13-16.13zm1.13 44.872c0 .623-.507 1.131-1.131 1.131H166.585a1.132 1.132 0 0 1-1.131-1.131V64.793c0-.623.507-1.131 1.131-1.131h148.787c.624 0 1.131.507 1.131 1.131v28.742zM229.688 364.365c45.072-45.071 45.072-118.408 0-163.479-45.072-45.072-118.407-45.072-163.479 0-17.536 17.537-28.782 39.726-32.522 64.17a7.499 7.499 0 0 0 6.279 8.547 7.495 7.495 0 0 0 8.547-6.279c3.254-21.264 13.04-40.571 28.301-55.833 39.223-39.223 103.044-39.223 142.268 0 37.634 37.634 39.152 97.91 4.567 137.379-3.294-6.703-8.897-12.161-16.225-15.387-8.884-3.911-24.2-6.397-33.621-7.639l-.04-9.47c9.104-6.703 15.566-16.819 17.423-28.523a13.265 13.265 0 0 0 4.328-2.915 13.185 13.185 0 0 0 3.857-9.442c-.067-9.939-.058-26.412-.058-36.008 0-9.075-6.612-16.636-15.271-18.119-1.662-8.438-9.117-14.822-18.036-14.822h-36.203c-18.663 0-33.847 15.183-33.847 33.846v35.243c0 5.471 3.339 10.177 8.086 12.188 1.815 11.347 7.956 21.207 16.627 27.912l.044 10.333c-9.41 1.321-24.704 3.936-33.557 7.922-6.732 3.033-11.993 8.176-15.231 14.509-11.99-13.802-19.929-30.441-23.077-48.535a7.5 7.5 0 0 0-14.777 2.571c4.092 23.514 15.205 44.894 32.139 61.829 45.269 45.272 118.606 44.876 163.478.002zm-99.885-142.82h36.203a3.388 3.388 0 0 1 3.384 3.384c0 6.162 5.013 11.175 11.175 11.175h.367a3.388 3.388 0 0 1 3.384 3.384v4.025l-9.065-.85c-8.88-.831-17.962 1.275-25.57 5.934a26.529 26.529 0 0 1-13.858 3.906h-24.867v-12.109c-.001-10.394 8.454-18.849 18.847-18.849zm-18.848 52.488V267.5h24.867c7.66 0 15.16-2.115 21.692-6.115a26.699 26.699 0 0 1 16.335-3.791l10.47.982c.006 4.619.018 10.713.044 15.429-4.175.733-7.424 4.252-7.679 8.612-.893 15.334-13.653 27.345-29.049 27.345-15.364 0-28.143-12.001-29.094-27.323-.268-4.318-3.467-7.815-7.586-8.606zm36.68 50.928c3.851 0 7.59-.506 11.16-1.439l.018 4.182c.008 1.94.453 3.791 1.241 5.455a22.908 22.908 0 0 1-12.777 3.918h-.069a22.908 22.908 0 0 1-12.688-3.814 12.846 12.846 0 0 0 1.2-5.463l-.019-4.484a43.962 43.962 0 0 0 11.934 1.645zm-63.967 35.043c1.089-5.487 4.592-10.06 9.646-12.338 5.102-2.297 14.929-4.604 27.305-6.432 7.07 6.939 16.537 10.841 26.586 10.841h.114c10.124-.03 19.642-4.016 26.704-11.066 12.392 1.724 22.238 3.947 27.359 6.202 5.739 2.526 9.449 7.338 10.358 13.202-37.113 30.482-91.109 30.343-128.072-.409z" fill="#000000" opacity="1" data-original="#000000" class=""></path></g></svg>