<svg xmlns="http://www.w3.org/2000/svg" version="1.1" xmlns:xlink="http://www.w3.org/1999/xlink" width="512" height="512" x="0" y="0" viewBox="0 0 60 60" style="enable-background:new 0 0 512 512" xml:space="preserve" class=""><g><path fill="#c7dce0" d="M33 47v1H21v-1l2-4v-1h8v1z" opacity="1" data-original="#c7dce0"></path><path fill="#dfeef2" d="m39.43 39-3.22 4H4a3 3 0 0 1-3-3v-1l1-1h38z" opacity="1" data-original="#dfeef2"></path><path fill="#314489" d="M53 4v18.12L39.43 39H1V4a3 3 0 0 1 3-3h46a3 3 0 0 1 3 3z" opacity="1" data-original="#314489" class=""></path><path fill="#dfeef2" d="M36.35 47.54A1.931 1.931 0 0 0 35 47H19a2.006 2.006 0 0 0-2 2 2.015 2.015 0 0 0 2 2h12.08z" opacity="1" data-original="#dfeef2"></path><path fill="#f28267" d="M5 39a6.8 6.8 0 0 1 3.65-5.87h14.7A6.8 6.8 0 0 1 27 39z" opacity="1" data-original="#f28267"></path><path fill="#32c7e2" d="M34.31 23H31a2.006 2.006 0 0 1-2-2V7a2.006 2.006 0 0 1 2-2h16a2.006 2.006 0 0 1 2 2v12.1z" opacity="1" data-original="#32c7e2"></path><path fill="#ffffff" d="M23.35 33.13 20 39l-4-4-4 4-3.35-5.87A8.72 8.72 0 0 1 13 32h6a8.72 8.72 0 0 1 4.35 1.13z" opacity="1" data-original="#ffffff"></path><path fill="#e7bda0" d="M19 29.74V32l-3 3-3-3v-2.26z" opacity="1" data-original="#e7bda0"></path><path fill="#d3a553" d="M19.88 9.95A3.691 3.691 0 0 0 20 9a4 4 0 0 0-8 0 3.824 3.824 0 0 0 .11.9z" opacity="1" data-original="#d3a553" class=""></path><path fill="#e2b65d" d="M7 21v-3a9.014 9.014 0 0 1 8.941-9A9.294 9.294 0 0 1 25 18.325V21z" opacity="1" data-original="#e2b65d" class=""></path><path fill="#f6d0b3" d="M22.867 19a2.1 2.1 0 0 1 2.119 1.76A2 2 0 0 1 23 23a9.932 9.932 0 0 1-.955 3.194C21.3 27.51 18.661 31 16 31s-5.3-3.49-6.045-4.806A9.932 9.932 0 0 1 9 23a2 2 0 0 1-1.971-2.347A2.066 2.066 0 0 1 9.082 19c4.347-.011 6.609-.913 7.764-1.725a1.611 1.611 0 0 1 2.091.161A5.356 5.356 0 0 0 22.867 19z" opacity="1" data-original="#f6d0b3"></path><g fill="#2c9fa8"><path d="M45 10H34a1 1 0 0 1 0-2h11a1 1 0 0 1 0 2zM45 15h-6a1 1 0 0 1 0-2h6a1 1 0 0 1 0 2zM35 15h-1a1 1 0 0 1 0-2h1a1 1 0 0 1 0 2zM44 20H34a1 1 0 0 1 0-2h10a1 1 0 0 1 0 2z" fill="#2c9fa8" opacity="1" data-original="#2c9fa8"></path></g><path fill="#f6d0b3" d="m34.7 39.36.14.82a5.776 5.776 0 0 0 2.55 3.85C39.01 45.1 41.39 47 44 47s4.99-1.9 6.61-2.97a5.776 5.776 0 0 0 2.55-3.85l.14-.82z" opacity="1" data-original="#f6d0b3"></path><path fill="#25304f" d="M32 34.235C32 41 39.8 41 44 41s12 0 12-6.765v-4.059A12.09 12.09 0 0 0 44 18a11.85 11.85 0 0 0-8.48 3.572 12.205 12.205 0 0 0-3.52 8.6z" opacity="1" data-original="#25304f"></path><path fill="#32c7e2" d="M31 59h26a2 2 0 0 0 2-2c0-6.037-5.125-10-11.007-10h-7.986C34.125 47 29 50.963 29 57a2 2 0 0 0 2 2z" opacity="1" data-original="#32c7e2"></path></g></svg>