<svg xmlns="http://www.w3.org/2000/svg" version="1.1" xmlns:xlink="http://www.w3.org/1999/xlink" width="512" height="512" x="0" y="0" viewBox="0 0 512 512" style="enable-background:new 0 0 512 512" xml:space="preserve" class=""><g><path fill="#d4e1f4" d="M335.951 419.345h-8.034v-12h8.034a5.139 5.139 0 0 0 5.133-5.133v-65.563h12v65.563a17.153 17.153 0 0 1-17.133 17.133zM184.083 419.345h-8.034a17.153 17.153 0 0 1-17.133-17.133v-65.563h12v65.563a5.139 5.139 0 0 0 5.133 5.133h8.034z" opacity="1" data-original="#d4e1f4" class=""></path><path fill="#c79a83" d="M384.41 13.65a29.431 29.431 0 0 1 29.19 29.67 29.189 29.189 0 1 1-58.37 0 29.423 29.423 0 0 1 29.18-29.67z" opacity="1" data-original="#c79a83"></path><ellipse cx="256" cy="43.32" fill="#efc597" rx="29.18" ry="29.67" opacity="1" data-original="#efc597"></ellipse><path fill="#ffd8b7" d="M127.59 13.65a29.423 29.423 0 0 1 29.18 29.67 29.189 29.189 0 1 1-58.37 0 29.431 29.431 0 0 1 29.19-29.67z" opacity="1" data-original="#ffd8b7"></path><path fill="#d4e1f4" d="M459.84 161H52.16L9.73 262h492.54z" opacity="1" data-original="#d4e1f4" class=""></path><path fill="#b6c9e0" d="M10 262h492v22H10z" opacity="1" data-original="#b6c9e0"></path><path fill="#5d6b84" d="M435.5 284.33h29.59v126.02H435.5zM47.78 284.33h29.59v126.02H47.78z" opacity="1" data-original="#5d6b84"></path><path fill="#fb6771" d="M317.31 397.64H195.34a11.643 11.643 0 0 0-11.6 11.61v8.19a11.643 11.643 0 0 0 11.6 11.61h121.97a11.651 11.651 0 0 0 11.61-11.61v-8.19a11.651 11.651 0 0 0-11.61-11.61zM328.82 261.955A11.831 11.831 0 0 0 317.18 252h-121.7a11.648 11.648 0 0 0-11.47 9.955L184 353.36A11.465 11.465 0 0 0 195.48 365h121.7A11.761 11.761 0 0 0 329 353.36z" opacity="1" data-original="#fb6771" class=""></path><path fill="#4a5160" d="M279.81 472.91h-46.63a19.568 19.568 0 0 0-19.57 19.57v5.87h85.77v-5.87a19.568 19.568 0 0 0-19.57-19.57z" opacity="1" data-original="#4a5160"></path><path fill="#b6c9e0" d="M243.94 429.05h25.11v43.86h-25.11z" opacity="1" data-original="#b6c9e0"></path><path fill="#49bdff" d="M303.22 252.01h-93.78a32.388 32.388 0 0 1 30.03-20.47h33.72a32.4 32.4 0 0 1 30.03 20.47z" opacity="1" data-original="#49bdff" class=""></path><path fill="#6d7486" d="M256.33 164.6c16.92 0 30.64 14.7 30.64 31.62a30.64 30.64 0 0 1-61.28 0c0-16.92 13.72-31.62 30.64-31.62z" opacity="1" data-original="#6d7486" class=""></path><path fill="#56568c" d="M354.89 321.51h-25.97v16.14h25.97a8.07 8.07 0 0 0 0-16.14z" opacity="1" data-original="#56568c"></path><path fill="#4a5160" d="M313.7 365.1v21.41a11.126 11.126 0 0 1-11.13 11.13h-30.92V365.1z" opacity="1" data-original="#4a5160"></path><path fill="#b6c9e0" d="M241.01 365.1h30.64v32.54h-30.64z" opacity="1" data-original="#b6c9e0"></path><path fill="#4a5160" d="M241.01 365.1v32.54H207.3a11.126 11.126 0 0 1-11.13-11.13V365.1z" opacity="1" data-original="#4a5160"></path><path fill="#56568c" d="M183.08 321.51h-25.97a8.07 8.07 0 0 0 0 16.14h26.63v-16.14z" opacity="1" data-original="#56568c"></path><path fill="#adf8d1" d="M403.18 82h-37.53C345.88 82 330 100.3 330 120.07V161h109v-40.93C439 100.3 422.95 82 403.18 82z" opacity="1" data-original="#adf8d1"></path><path fill="#eadf53" d="M274.77 82h-37.54C217.47 82 201 100.3 201 120.07V161h110v-40.93C311 100.3 294.53 82 274.77 82z" opacity="1" data-original="#eadf53" class=""></path><path fill="#867af4" d="M146.35 82h-37.53C89.05 82 73 100.3 73 120.07V161h109v-40.93C182 100.3 166.12 82 146.35 82z" opacity="1" data-original="#867af4"></path><path fill="#49bdff" d="m390.17 99.53 6.41 35.74-12.17 7.3-12.17-7.31 6.44-35.73h11.48z" opacity="1" data-original="#49bdff" class=""></path><path fill="#3090fc" d="M394.65 82.13v.01l-4.49 17.39h-11.5l-4.48-17.4z" opacity="1" data-original="#3090fc"></path><path fill="#6addc7" d="m261.76 99.53 6.41 35.74-12.17 7.3-12.17-7.31 6.44-35.73h11.48z" opacity="1" data-original="#6addc7"></path><path fill="#61a3bc" d="M266.24 82.13v.01l-4.49 17.39h-11.51l-4.48-17.4z" opacity="1" data-original="#61a3bc"></path><path fill="#eadf53" d="m133.35 99.53 6.41 35.74-12.18 7.3-12.16-7.31 6.44-35.73h11.48z" opacity="1" data-original="#eadf53" class=""></path><path fill="#edb740" d="M137.82 82.13v.01l-4.48 17.39h-11.51l-4.48-17.4z" opacity="1" data-original="#edb740"></path><path fill="#a7bad1" d="M52.16 161 9.73 262h30l42.43-101z" opacity="1" data-original="#a7bad1" class=""></path><path fill="#e75163" d="M213.74 417.44v-8.19a11.643 11.643 0 0 1 11.6-11.61h-30a11.643 11.643 0 0 0-11.6 11.61v8.19a11.643 11.643 0 0 0 11.6 11.61h30a11.643 11.643 0 0 1-11.6-11.61zM195.48 365h30A11.465 11.465 0 0 1 214 353.36l.01-91.405A11.648 11.648 0 0 1 225.48 252h-30a11.648 11.648 0 0 0-11.47 9.955L184 353.36A11.465 11.465 0 0 0 195.48 365z" opacity="1" data-original="#e75163"></path><path fill="#7f9cb2" d="M10 262h30v22H10z" opacity="1" data-original="#7f9cb2"></path><g fill="#fff"><path d="M76.166 192.935h-7.6a6 6 0 0 1 0-12h7.6a6 6 0 0 1 0 12zM183.75 192.935H96.243a6 6 0 0 1 0-12h87.507a6 6 0 0 1 0 12z" fill="#ffffff" opacity="1" data-original="#ffffff"></path></g></g></svg>