<svg xmlns="http://www.w3.org/2000/svg" version="1.1" xmlns:xlink="http://www.w3.org/1999/xlink" width="512" height="512" x="0" y="0" viewBox="0 0 512 512" style="enable-background:new 0 0 512 512" xml:space="preserve" class=""><g><path d="M460.449 86.128c.031-.278.051-.559.051-.845a7.48 7.48 0 0 0-2.914-5.926c-.6-.669-1.228-1.261-1.817-1.812a95.542 95.542 0 0 1-1.415-1.345l-73.37-70.024-1.125-1.078c-1.341-1.291-2.602-2.488-4.059-3.404-.071-.05-.144-.097-.217-.145l-.064-.039a7.465 7.465 0 0 0-1.879-.858C372.514.251 371.257 0 369.753 0H65.713C57.876 0 51.5 6.378 51.5 14.218v168.18a7.5 7.5 0 0 0 15 0V15h297.501l-.049 43.311c-.018 9.163 3.561 17.805 10.076 24.333 6.526 6.538 15.177 10.139 24.361 10.139h47.11V497h-379V217.009a7.5 7.5 0 0 0-15 0v280.772c0 7.84 6.376 14.218 14.213 14.218h380.574c7.837 0 14.213-6.378 14.213-14.218V90.901l-.028-4.116c.001-.226-.011-.442-.022-.657zm-75.803-14.081c-3.681-3.688-5.703-8.556-5.693-13.713l.037-33.329 55.297 52.779H398.39c-5.172-.001-10.053-2.038-13.744-5.737z" fill="#ffb606" opacity="1" data-original="#000000" class=""></path><path d="M179.218 231.9c-17.16 9.756-33.368 18.972-33.368 45.686v48.898c0 1.572 0 6.355 3.399 9.692 2.817 2.766 6.203 3.082 8.962 3.082.428 0 .841-.007 1.234-.015.403-.007.827-.016 1.27-.016h16.344a7.5 7.5 0 0 0 0-15h-16.208v-46.642c0-17.987 9.158-23.194 25.782-32.646a712.584 712.584 0 0 0 4.823-2.761l28.572 18.513c.095.062.192.122.29.179 1.009.591 1.893 1.196 2.747 1.781 1.798 1.232 4.92 3.373 8.68 3.373 1.814 0 3.777-.505 5.81-1.844l1.486 5.822-16.258 35.293c-1.333 2.583-1.2 5.501.34 7.922l6.479 11.009h-17.929a7.5 7.5 0 0 0 0 15h31.036l.015.001.015-.001H276.6l.015.001.015-.001h82.049c.442 0 .866.008 1.27.016.394.007.806.015 1.234.015 2.759 0 6.145-.316 8.962-3.082 3.399-3.337 3.399-8.121 3.399-9.692v-48.898c0-26.714-16.208-35.929-33.368-45.686-2.77-1.575-5.633-3.203-8.566-4.964l-22.608-13.579c10.374-10.793 18.159-24.026 21.189-37.299.875-3.869 1.318-7.667 1.318-11.291v-55.077c0-24.706-18.623-47.009-47.444-56.82-25.288-8.609-50.368-4.597-63.718 9.875-13.7 2.327-33.134 13.115-32.472 55.691.006.389.011.708.011.948V164.766c0 3.653.456 7.467 1.347 11.298 3.012 13.27 10.79 26.505 21.167 37.301l-22.615 13.571c-2.934 1.762-5.797 3.39-8.567 4.964zm51.699 17.952a53.07 53.07 0 0 0-2.869-1.835l-22.234-14.407 16.423-9.855c5.886 4.324 12.215 7.856 18.74 10.29 1.258.468 2.477.875 3.68 1.252zm66.249-26.106 16.416 9.86-22.238 14.41a52.678 52.678 0 0 0-2.869 1.835l-13.724-14.556c1.2-.378 2.416-.785 3.669-1.253 6.526-2.434 12.857-5.968 18.746-10.296zm-44.375 39.48-2.952-11.568 9.868-10.453 9.794 10.388-2.96 11.633zm-15.002 45.342 13.978-30.342h15.802l13.978 30.342-9.215 15.66h-25.328zm120.753-30.982v46.642h-68.806l6.478-11.009c1.537-2.416 1.672-5.329.342-7.919l-16.261-35.299 1.49-5.854c2.053 1.366 4.034 1.879 5.864 1.879 3.759 0 6.882-2.141 8.68-3.373.854-.585 1.737-1.19 2.747-1.781.098-.057.194-.117.29-.179l28.572-18.513a688.76 688.76 0 0 0 4.824 2.761c16.623 9.451 25.78 14.658 25.78 32.645zm-133.69-200.31a7.5 7.5 0 0 0 5.281-2.895c10.126-13.149 31.955-13.148 49.097-7.313 17.197 5.854 37.278 20.529 37.278 42.62v23.057h-4.312c-8.943 0-14.707-5.408-22.004-12.254-8.84-8.294-19.842-18.616-38.866-18.616h-14.899c-17.434 0-20.37 14.303-22.125 22.849-2.118 10.314-3.335 12.726-10.449 12.726h-.969v-18.069c0-.299-.006-.696-.013-1.182-.276-17.755 3.314-39.271 21.981-40.923zm-21.967 87.491v-12.314h.969c20.07 0 23.245-15.468 25.142-24.709 2.065-10.062 3.017-10.866 7.431-10.866h14.899c13.089 0 20.278 6.745 28.603 14.555 8.151 7.647 17.39 16.314 32.268 16.314h4.312v17.02c0 2.513-.319 5.199-.945 7.968-4.473 19.592-22.695 39.907-42.391 47.256-5.079 1.899-9.356 2.784-13.461 2.784-4.156 0-8.319-.86-13.495-2.787-19.702-7.351-37.911-27.662-42.364-47.283-.643-2.756-.968-5.428-.968-7.938zM106.252 382.298v55.248c0 6.371 5.194 11.554 11.579 11.554h55.205c6.385 0 11.579-5.183 11.579-11.554V382.71l12.726-17.484a7.5 7.5 0 1 0-12.128-8.828l-10.519 14.451a11.627 11.627 0 0 0-1.659-.133H117.83c-6.384 0-11.578 5.196-11.578 11.582zm15 3.418h42.621l-14.734 20.242-6.659-5.215c-3.261-2.556-7.975-1.981-10.529 1.28s-1.981 7.975 1.28 10.529l12.775 10.006a7.5 7.5 0 0 0 10.689-1.491l12.92-17.75v30.782h-48.363zM295.539 356.398 285.02 370.85a11.481 11.481 0 0 0-1.658-.133h-55.205c-6.385 0-11.579 5.195-11.579 11.582v55.248c0 6.371 5.194 11.554 11.579 11.554h55.205c6.369 0 11.551-5.183 11.551-11.554V382.75l12.754-17.523a7.5 7.5 0 0 0-1.65-10.478 7.5 7.5 0 0 0-10.478 1.649zm-15.626 77.701h-48.335v-48.383h42.621l-14.734 20.242-6.659-5.215a7.498 7.498 0 0 0-10.529 1.28 7.5 7.5 0 0 0 1.28 10.529l12.775 10.006a7.5 7.5 0 0 0 10.689-1.491l12.892-17.711zM416.312 353.527a7.5 7.5 0 0 0-10.477 1.654l-11.331 15.578c-.28-.02-.56-.043-.845-.043h-55.205c-6.385 0-11.579 5.195-11.579 11.582v55.248c0 6.371 5.194 11.554 11.579 11.554h55.205c6.384 0 11.579-5.183 11.579-11.554v-55.248c0-.251-.022-.496-.038-.743l12.766-17.551a7.5 7.5 0 0 0-1.654-10.477zm-26.074 80.572h-48.363v-48.383h41.75l-13.841 19.029-6.686-5.226a7.5 7.5 0 1 0-9.237 11.819l12.803 10.006a7.502 7.502 0 0 0 10.684-1.498l12.89-17.721z" fill="#ffb606" opacity="1" data-original="#000000" class=""></path></g></svg>