<svg xmlns="http://www.w3.org/2000/svg" version="1.1" xmlns:xlink="http://www.w3.org/1999/xlink" width="512" height="512" x="0" y="0" viewBox="0 0 128 128" style="enable-background:new 0 0 512 512" xml:space="preserve" class=""><g><circle cx="64" cy="64" r="64" fill="#70b1e1" opacity="1" data-original="#70b1e1"></circle><path fill="#e8e7e8" d="M38.917.92 117.66 22.3 89.05 127.676l-78.745-21.38z" opacity="1" data-original="#e8e7e8"></path><path fill="#fdfeff" d="M23.2 9.7h81.6v109.2H23.2z" opacity="1" data-original="#fdfeff" class=""></path><path fill="#70b1e1" d="M29.2 16.1h26.5v29.3H29.2z" opacity="1" data-original="#70b1e1"></path><g fill="#d2d2d4"><path d="M64 41.1h34.8v4.3H64zM29.2 53.6h69.5v4.3H29.2zM29.2 66.1h69.5v4.3H29.2zM29.2 78.6h69.5v4.3H29.2zM29.2 91.1h69.5v4.3H29.2z" fill="#d2d2d4" opacity="1" data-original="#d2d2d4" class=""></path></g><g fill="#e8bb20"><path d="M74.8 103.7h23.9v4.3H74.8zM29.2 103.7h23.9v4.3H29.2z" fill="#e8bb20" opacity="1" data-original="#e8bb20"></path></g><path fill="#da8d27" d="M84.8 6.5v16.4c0 2.3-1.9 4.2-4.2 4.2s-4.2-1.9-4.2-4.2v-7.6c0-.8.7-1.5 1.5-1.5s1.5.7 1.5 1.5v7.6c0 .6.5 1.1 1.2 1.1.6 0 1.2-.5 1.2-1.1V6.5c0-1.7-1.4-3.2-3.2-3.2-1.7 0-3.2 1.4-3.2 3.2v3.1h-3V6.5c0-3.4 2.8-6.2 6.2-6.2 3.4.1 6.2 2.8 6.2 6.2z" opacity="1" data-original="#da8d27"></path><path fill="#fdfeff" d="M39.8 32.2h5.3l.8.3-2.6 8.6h-1.6l-2.6-8.6z" opacity="1" data-original="#fdfeff" class=""></path><path fill="#f0b97c" d="M45.1 30.9h-5.3v1.3l2.7 2 2.6-2z" opacity="1" data-original="#f0b97c"></path><path fill="#70b1e1" d="M44.3 43.6h-3.6l1.2-7.6h1.2z" opacity="1" data-original="#70b1e1"></path><path fill="#70b1e1" d="m41.2 35.491 1.272-1.273 1.273 1.273-1.273 1.273z" opacity="1" data-original="#70b1e1"></path><path fill="#e8e7e8" d="m39.8 32.2-.7.3 1.4 4.7 2-3z" opacity="1" data-original="#e8e7e8"></path><path fill="#4d535f" d="m39.1 32.5-2.9 1.3 2 3.2-1.3 1.4 3.9 5.2h1.7z" opacity="1" data-original="#4d535f"></path><path fill="#353944" d="m38.2 37-2-3.2-4.2 1.9c-.8.4-1.3 1.2-1.3 2v5.9h10.1l-3.9-5.2z" opacity="1" data-original="#353944"></path><path fill="#e8e7e8" d="m45.1 32.2.8.3-1.4 4.7-2-3z" opacity="1" data-original="#e8e7e8"></path><path fill="#4d535f" d="m45.9 32.5 2.8 1.3-2 3.2 1.4 1.4-3.9 5.2h-1.7z" opacity="1" data-original="#4d535f"></path><path fill="#353944" d="m46.7 37 2-3.2 4.2 1.9c.8.4 1.3 1.2 1.3 2v5.9h-10l3.9-5.2z" opacity="1" data-original="#353944"></path><ellipse cx="47" cy="26.1" fill="#f0b97c" rx=".8" ry="1.5" transform="rotate(26.87 47.036 26.086)" opacity="1" data-original="#f0b97c"></ellipse><ellipse cx="37.9" cy="26.1" fill="#f0b97c" rx=".8" ry="1.5" transform="rotate(153.13 37.899 26.107)" opacity="1" data-original="#f0b97c"></ellipse><path fill="#4d535f" d="M43.1 21.7s3-1.2 3.4.4c0 0 .5 1.4.2 4 0 0 .3-1.1.8-1.4 0 0 1.4-4.6-1.7-5s-2.7 2-2.7 2z" opacity="1" data-original="#4d535f"></path><path fill="#4d535f" d="M38.2 26.1s-.2-1-.8-1.3c0 0-.3-4.9 2.4-6.1 0 0 1.2-.5 2.3-.7 0 0 2.9-.3 3.8 1.8 0 0-1.9 2.2-3.2 2 0 0-.4-.1-1-.5-.4-.3-.9-.4-1.3-.2-1.1.1-2.7 1.1-2.2 5z" opacity="1" data-original="#4d535f"></path><path fill="#f7cfa3" d="M46.5 22.1c-.3-1.1-2-.8-2.8-.6-.2.1-.4.1-.5.2h-.4s-.4-.1-1-.5c-.4-.3-.9-.4-1.3-.2-1.1.3-2.6 1.3-2.2 5.1l.2 2.7c0 .2 0 .4.1.6.2.6.5 1.1 1 1.4l1.6 1.2c.5.5 1.4.4 1.4.4s.9.1 1.4-.4l1.6-1.2c.5-.4.8-.8 1-1.4 0-.2.1-.4.1-.6l.2-2.7c.1-2.6-.4-4-.4-4z" opacity="1" data-original="#f7cfa3"></path></g></svg>