<svg xmlns="http://www.w3.org/2000/svg" version="1.1" xmlns:xlink="http://www.w3.org/1999/xlink" width="512" height="512" x="0" y="0" viewBox="0 0 64 64" style="enable-background:new 0 0 512 512" xml:space="preserve" class=""><g><path fill="#e6e9ed" d="M40 4V3c0-.55-.45-1-1-1H8v5c0 .55-.45 1-1 1H2v53c0 .55.45 1 1 1h37z" opacity="1" data-original="#e6e9ed"></path><path fill="#ffeaa7" d="m37 42 4 16-5 4-5-4 4-16z" opacity="1" data-original="#ffeaa7"></path><path fill="#fcd770" d="M37.94 39.17 37 42h-2l-.94-2.83L36 38z" opacity="1" data-original="#fcd770" class=""></path><path fill="#b4dd7f" d="M37.94 39.17 41 41l.88-4.4c.76.29 1.49.64 2.18 1.04 1.4.8 2.65 1.81 3.72 2.97C50.43 43.47 52 47.27 52 51.37V62H36l5-4-4-16zM26 62h-6V51.37c0-1.15.12-2.28.36-3.37 1.13-5.16 4.78-9.48 9.76-11.4L31 41l3.06-1.83L35 42l-4 16 5 4z" opacity="1" data-original="#b4dd7f" class=""></path><path fill="#a0d468" d="M40 36c.65.16 1.28.36 1.88.6L41 41l-3.06-1.83L36 38zM36 38l-1.94 1.17L31 41l-.88-4.4c.61-.24 1.23-.44 1.88-.6z" opacity="1" data-original="#a0d468"></path><path fill="#fcd770" d="M8 2v5c0 .55-.45 1-1 1H2z" opacity="1" data-original="#fcd770" class=""></path><path fill="#b4dd7f" d="M12 6h24v4H12z" opacity="1" data-original="#b4dd7f" class=""></path><circle cx="10" cy="48" r="4" fill="#ff826e" opacity="1" data-original="#ff826e"></circle><circle cx="10" cy="20" r="4" fill="#ff826e" opacity="1" data-original="#ff826e"></circle><circle cx="10" cy="34" r="4" fill="#ff826e" opacity="1" data-original="#ff826e"></circle><path fill="#ffc729" d="M47.5 9.29a4.065 4.065 0 0 0 4.43-.88l1.09-1.09 5.66 5.66-1.09 1.09a4.067 4.067 0 0 0-.88 4.43c.31.76.84 1.38 1.5 1.82.65.43 1.43.68 2.25.68H62v8h-1.54c-1.64 0-3.12.99-3.75 2.5a4.065 4.065 0 0 0 .88 4.43l1.09 1.09-5.66 5.66-1.12-1.12a4.002 4.002 0 0 0-4.12-.95 15.593 15.593 0 0 0-3.72-2.97C49.76 36.26 54 31.13 54 25c0-4.6-2.39-8.65-6-10.96V14c0-1.66-.67-3.16-1.76-4.24A5.944 5.944 0 0 0 42 8c-.55 0-1.05.22-1.41.59-.37.36-.59.86-.59 1.41V4h5v1.54c0 1.64.99 3.12 2.5 3.75z" opacity="1" data-original="#ffc729"></path><path fill="#fcd770" d="M41 34a9 9 0 0 0 9-9c0-2.84-1.31-5.37-3.37-7.02A6.429 6.429 0 0 0 48 14.04c3.61 2.31 6 6.36 6 10.96 0 6.13-4.24 11.26-9.94 12.64-.69-.4-1.42-.75-2.18-1.04-.6-.24-1.23-.44-1.88-.6l-.38-2.1h.01c.45.06.9.1 1.37.1z" opacity="1" data-original="#fcd770" class=""></path><path fill="#b27946" d="M27 20c-.9 0-1.7.39-2.24 1.02l-.01-.01L24.5 20l-.29-1.15c-.14-.56-.21-1.14-.21-1.73 0-1.96.8-3.74 2.09-5.03S29.16 10 31.12 10H40c0-.55.22-1.05.59-1.41.36-.37.86-.59 1.41-.59 1.66 0 3.16.67 4.24 1.76A5.944 5.944 0 0 1 48 14v.04c-.01 1.46-.5 2.83-1.37 3.94-.58.75-1.33 1.37-2.21 1.81L44 20c0-1.1-.9-2-2-2H30c-1.1 0-2 .9-2 2z" opacity="1" data-original="#b27946"></path><path fill="#f0d0b4" d="M47.12 25.12c-.54.54-1.29.88-2.12.88h-1.08c.06-.33.08-.66.08-1v-5h1a2.996 2.996 0 0 1 2.12 5.12zM39.62 33.9 40 36l-4 2-4-2 .79-4.36c.69.24 1.43.36 2.21.36h2c.78 0 1.52-.12 2.21-.36zM28.07 26H27c-.83 0-1.58-.34-2.12-.88S24 23.83 24 23c0-.76.28-1.45.76-1.98A2.93 2.93 0 0 1 27 20h1v5c0 .34.02.67.08 1z" opacity="1" data-original="#f0d0b4"></path><path fill="#f0d0b4" d="M44 20v5c0 .34-.02.67-.08 1a6.968 6.968 0 0 1-4.71 5.64c-.69.24-1.43.36-2.21.36h-2c-.78 0-1.52-.12-2.21-.36A6.968 6.968 0 0 1 28.08 26c-.06-.33-.08-.66-.08-1v-5c0-1.1.9-2 2-2h12c1.1 0 2 .9 2 2z" opacity="1" data-original="#f0d0b4"></path><circle cx="32" cy="22" r="1" fill="#000000" opacity="1" data-original="#000000" class=""></circle><circle cx="40" cy="22" r="1" fill="#000000" opacity="1" data-original="#000000" class=""></circle><path d="M32.211 26.658C32.933 28.103 34.385 29 36 29s3.067-.897 3.789-2.342l.105-.211-1.789-.895-.105.212c-.381.762-1.147 1.236-2 1.236s-1.619-.474-2-1.236l-.105-.211-1.789.895zM10 15c-2.757 0-5 2.243-5 5s2.243 5 5 5 5-2.243 5-5-2.243-5-5-5zm0 8c-1.654 0-3-1.346-3-3s1.346-3 3-3 3 1.346 3 3-1.346 3-3 3zM10 29c-2.757 0-5 2.243-5 5s2.243 5 5 5 5-2.243 5-5-2.243-5-5-5zm0 8c-1.654 0-3-1.346-3-3s1.346-3 3-3 3 1.346 3 3-1.346 3-3 3zM17 33h12v2H17zM10 43c-2.757 0-5 2.243-5 5s2.243 5 5 5 5-2.243 5-5-2.243-5-5-5zm0 8c-1.654 0-3-1.346-3-3s1.346-3 3-3 3 1.346 3 3-1.346 3-3 3z" fill="#000000" opacity="1" data-original="#000000" class=""></path><path d="M60.461 20c-1.24 0-2.349-.74-2.825-1.884a3.05 3.05 0 0 1 .662-3.339l1.796-1.796-7.074-7.075-1.796 1.796a3.051 3.051 0 0 1-3.339.662A3.051 3.051 0 0 1 46 5.539V3h-5c0-1.103-.897-2-2-2H7.586L1 7.586V61c0 1.103.897 2 2 2h50V51.369c0-3.665-1.187-7.093-3.221-9.894a2.998 2.998 0 0 1 1.418.796l1.824 1.823 7.075-7.074-1.797-1.796a3.053 3.053 0 0 1-.662-3.339A3.05 3.05 0 0 1 60.461 30H63V20zM53 25a11.956 11.956 0 0 1-8.811 11.562 16.88 16.88 0 0 0-3.314-1.345l-.04-.223c.055.001.11.006.165.006 5.514 0 10-4.486 10-10 0-2.735-1.106-5.3-3.051-7.179.363-.61.633-1.273.81-1.971A11.944 11.944 0 0 1 53 25zM25 48v13h-4v-9.631a14.81 14.81 0 0 1 8.384-13.352l.914 4.571 3.203-1.922.458 1.374-4.085 16.34L33.149 61H27V48zm2-27v4c-1.103 0-2-.897-2-2s.897-2 2-2zm.184-2H27c-.582 0-1.131.131-1.63.355l-.187-.748A6.13 6.13 0 0 1 31.123 11h8.061A2.996 2.996 0 0 0 42 13h1v-2h-1c-.551 0-1-.449-1-1s.449-1 1-1c2.757 0 5 2.243 5 5a5.436 5.436 0 0 1-2.402 4.528A2.99 2.99 0 0 0 42 17H30a2.996 2.996 0 0 0-2.816 2zM13 9V7h2v2zm4-2h2v2h-2zm4 0h2v2h-2zm4 0h2v2h-2zm8 0h2v2h-2zm-2 2h-2V7h2zm18 16c0 4.411-3.589 8-8 8-.179 0-.354-.028-.532-.04l-.126-.701A8.023 8.023 0 0 0 44.737 27H45a4.005 4.005 0 0 0 3.907-3.157c.055.381.093.765.093 1.157zm-4-4c1.103 0 2 .897 2 2s-.897 2-2 2zm1.71-1.601-.014-.008.004-.004a.106.106 0 0 0 .01.012zM29 20c0-.551.449-1 1-1h12c.551 0 1 .449 1 1v5c0 3.309-2.691 6-6 6h-2c-3.309 0-6-2.691-6-6zm6 13h2c.485 0 .957-.05 1.419-.134l.464 2.574L36 36.882l-2.883-1.441.464-2.574c.462.083.934.133 1.419.133zm-1.077 5.08-2.221 1.332-.431-2.155c.208-.067.42-.128.632-.187zm-1.797 19.54L35.781 43h.439l3.655 14.62L36 60.719zM36.279 41h-.559l-.463-1.388.743-.446.742.445zm1.798-2.92 2.02-1.01c.213.059.424.119.632.187l-.431 2.155zM44 5v.539c0 .662.14 1.296.376 1.885A6.962 6.962 0 0 0 42 7c-.352 0-.686.072-1 .184V5zM7 4.414V7H4.414zM3 9h4c1.103 0 2-.897 2-2V3h30v6h-2V5H11v6h14.802A8.098 8.098 0 0 0 23 17.123c0 .633.079 1.264.225 1.877H17v2h6.556A3.959 3.959 0 0 0 23 23c0 2.206 1.794 4 4 4h.263a8.02 8.02 0 0 0 4.395 5.259l-.533 2.958A16.798 16.798 0 0 0 19.578 47H17v2h2.179A17.024 17.024 0 0 0 19 51.369V61H3zm48 52h-4V48h-2v13h-6.149l3.275-2.62-4.085-16.34.458-1.374 3.203 1.922.914-4.571A14.81 14.81 0 0 1 51 51.369zm10-33h-.539a5.047 5.047 0 0 0-4.672 3.116 5.045 5.045 0 0 0 1.094 5.521l.382.382-4.246 4.246-.41-.409a4.97 4.97 0 0 0-4.52-1.363 16.797 16.797 0 0 0-1.765-1.548A13.947 13.947 0 0 0 55 25c0-4.616-2.252-8.857-6.024-11.479a6.936 6.936 0 0 0-.932-3.036 5.037 5.037 0 0 0 4.594-1.368l.382-.382 4.246 4.246-.382.382a5.043 5.043 0 0 0-1.094 5.522A5.045 5.045 0 0 0 60.461 22H61z" fill="#000000" opacity="1" data-original="#000000" class=""></path><path d="M53.021 36.021a.999.999 0 1 0 .707 1.707.999.999 0 0 0-.707-1.707z" fill="#000000" opacity="1" data-original="#000000" class=""></path><circle cx="58" cy="25" r="1" fill="#000000" opacity="1" data-original="#000000" class=""></circle><path d="M53.021 11.979a.999.999 0 1 0 .707 1.707.999.999 0 0 0-.707-1.707z" fill="#000000" opacity="1" data-original="#000000" class=""></path></g></svg>